# xmcd CD database file
#
# Track frame offsets:
#	150
#	41032
#	79457
#	118439
#	150475
#	175264
#	208008
#	242965
#
# Disc length: 3497 seconds
#
# Revision: 0
# Processed by: cddbd v1.5.2PL0 Copyright (c) Steve Scherf et al.
# Submitted via: CDex 1.51
#
DISCID=710da708
DTITLE=Kitaro - Sacred Journey Of Ku-Kai Vol. 4
DYEAR=2010
DGENRE=New Age
TTITLE0=Lotus Mountain
TTITLE1=Yakushi
TTITLE2=Magic Seeds
TTITLE3=Reflection Of Water
TTITLE4=South Wind
TTITLE5=Circle Pray
TTITLE6=Requiem
TTITLE7=Ritual Winds
EXTD=YEAR: 2010
EXTT0=
EXTT1=
EXTT2=
EXTT3=
EXTT4=
EXTT5=
EXTT6=
EXTT7=
PLAYORDER=
